<mxfile host="app.diagrams.net" modified="2024-02-18T15:11:17.288Z" agent="Mozilla/5.0 (Windows NT 10.0; Win64; x64) AppleWebKit/537.36 (KHTML, like Gecko) Chrome/121.0.0.0 Safari/537.36" etag="_vp_pJx1ql-EkRapz9YT" version="23.1.5" type="device">
  <diagram name="Pagina-1" id="qeaKu3H87HUZBjLvLZMc">
    <mxGraphModel dx="1434" dy="746" grid="1" gridSize="10" guides="1" tooltips="1" connect="1" arrows="1" fold="1" page="1" pageScale="1" pageWidth="827" pageHeight="1169" math="0" shadow="0">
      <root>
        <mxCell id="0" />
        <mxCell id="1" parent="0" />
        <mxCell id="8OQsEcffn4VBaYcQrzt6-10" value="Client" style="outlineConnect=0;dashed=0;verticalLabelPosition=bottom;verticalAlign=top;align=center;html=1;shape=mxgraph.aws3.management_console;fillColor=#D2D3D3;gradientColor=none;fontSize=19;" vertex="1" parent="1">
          <mxGeometry x="30" y="263" width="63" height="63" as="geometry" />
        </mxCell>
        <mxCell id="8OQsEcffn4VBaYcQrzt6-58" value="Region" style="points=[[0,0],[0.25,0],[0.5,0],[0.75,0],[1,0],[1,0.25],[1,0.5],[1,0.75],[1,1],[0.75,1],[0.5,1],[0.25,1],[0,1],[0,0.75],[0,0.5],[0,0.25]];outlineConnect=0;gradientColor=none;html=1;whiteSpace=wrap;fontSize=12;fontStyle=0;container=1;pointerEvents=0;collapsible=0;recursiveResize=0;shape=mxgraph.aws4.group;grIcon=mxgraph.aws4.group_region;strokeColor=#00A4A6;fillColor=none;verticalAlign=top;align=left;spacingLeft=30;fontColor=#147EBA;dashed=1;" vertex="1" parent="1">
          <mxGeometry x="210" y="60" width="790" height="620" as="geometry" />
        </mxCell>
        <mxCell id="8OQsEcffn4VBaYcQrzt6-7" value="WAF" style="sketch=0;points=[[0,0,0],[0.25,0,0],[0.5,0,0],[0.75,0,0],[1,0,0],[0,1,0],[0.25,1,0],[0.5,1,0],[0.75,1,0],[1,1,0],[0,0.25,0],[0,0.5,0],[0,0.75,0],[1,0.25,0],[1,0.5,0],[1,0.75,0]];outlineConnect=0;fontColor=#232F3E;fillColor=#DD344C;strokeColor=#ffffff;dashed=0;verticalLabelPosition=bottom;verticalAlign=top;align=center;html=1;fontSize=19;fontStyle=0;aspect=fixed;shape=mxgraph.aws4.resourceIcon;resIcon=mxgraph.aws4.waf;" vertex="1" parent="8OQsEcffn4VBaYcQrzt6-58">
          <mxGeometry x="40" y="485" width="80" height="80" as="geometry" />
        </mxCell>
        <mxCell id="8OQsEcffn4VBaYcQrzt6-62" style="edgeStyle=orthogonalEdgeStyle;rounded=0;orthogonalLoop=1;jettySize=auto;html=1;dashed=1;" edge="1" parent="8OQsEcffn4VBaYcQrzt6-58" source="8OQsEcffn4VBaYcQrzt6-4" target="8OQsEcffn4VBaYcQrzt6-5">
          <mxGeometry relative="1" as="geometry" />
        </mxCell>
        <mxCell id="8OQsEcffn4VBaYcQrzt6-4" value="Api Gateway" style="sketch=0;points=[[0,0,0],[0.25,0,0],[0.5,0,0],[0.75,0,0],[1,0,0],[0,1,0],[0.25,1,0],[0.5,1,0],[0.75,1,0],[1,1,0],[0,0.25,0],[0,0.5,0],[0,0.75,0],[1,0.25,0],[1,0.5,0],[1,0.75,0]];outlineConnect=0;fontColor=#232F3E;fillColor=#E7157B;strokeColor=#ffffff;dashed=0;verticalLabelPosition=bottom;verticalAlign=top;align=center;html=1;fontSize=19;fontStyle=0;aspect=fixed;shape=mxgraph.aws4.resourceIcon;resIcon=mxgraph.aws4.api_gateway;" vertex="1" parent="8OQsEcffn4VBaYcQrzt6-58">
          <mxGeometry x="40" y="330" width="80" height="80" as="geometry" />
        </mxCell>
        <mxCell id="8OQsEcffn4VBaYcQrzt6-5" value="Cognito" style="sketch=0;points=[[0,0,0],[0.25,0,0],[0.5,0,0],[0.75,0,0],[1,0,0],[0,1,0],[0.25,1,0],[0.5,1,0],[0.75,1,0],[1,1,0],[0,0.25,0],[0,0.5,0],[0,0.75,0],[1,0.25,0],[1,0.5,0],[1,0.75,0]];outlineConnect=0;fontColor=#232F3E;fillColor=#DD344C;strokeColor=#ffffff;dashed=0;verticalLabelPosition=bottom;verticalAlign=top;align=center;html=1;fontSize=19;fontStyle=0;aspect=fixed;shape=mxgraph.aws4.resourceIcon;resIcon=mxgraph.aws4.cognito;" vertex="1" parent="8OQsEcffn4VBaYcQrzt6-58">
          <mxGeometry x="40" y="180" width="80" height="80" as="geometry" />
        </mxCell>
        <mxCell id="8OQsEcffn4VBaYcQrzt6-66" value="Notify Upload" style="edgeStyle=orthogonalEdgeStyle;rounded=0;orthogonalLoop=1;jettySize=auto;html=1;fontSize=16;dashed=1;" edge="1" parent="8OQsEcffn4VBaYcQrzt6-58" source="8OQsEcffn4VBaYcQrzt6-3" target="8OQsEcffn4VBaYcQrzt6-12">
          <mxGeometry relative="1" as="geometry" />
        </mxCell>
        <mxCell id="8OQsEcffn4VBaYcQrzt6-3" value="S3&lt;br&gt;(App Storage)" style="sketch=0;points=[[0,0,0],[0.25,0,0],[0.5,0,0],[0.75,0,0],[1,0,0],[0,1,0],[0.25,1,0],[0.5,1,0],[0.75,1,0],[1,1,0],[0,0.25,0],[0,0.5,0],[0,0.75,0],[1,0.25,0],[1,0.5,0],[1,0.75,0]];outlineConnect=0;fontColor=#232F3E;fillColor=#7AA116;strokeColor=#ffffff;dashed=0;verticalLabelPosition=bottom;verticalAlign=top;align=center;html=1;fontSize=19;fontStyle=0;aspect=fixed;shape=mxgraph.aws4.resourceIcon;resIcon=mxgraph.aws4.s3;" vertex="1" parent="8OQsEcffn4VBaYcQrzt6-58">
          <mxGeometry x="350" y="50" width="80" height="80" as="geometry" />
        </mxCell>
        <mxCell id="8OQsEcffn4VBaYcQrzt6-65" value="Generate Signed Urls" style="edgeStyle=orthogonalEdgeStyle;rounded=0;orthogonalLoop=1;jettySize=auto;html=1;dashed=1;fontSize=16;" edge="1" parent="8OQsEcffn4VBaYcQrzt6-58" source="8OQsEcffn4VBaYcQrzt6-1" target="8OQsEcffn4VBaYcQrzt6-3">
          <mxGeometry relative="1" as="geometry" />
        </mxCell>
        <mxCell id="8OQsEcffn4VBaYcQrzt6-1" value="Lambda&lt;br&gt;(Movie App)" style="sketch=0;points=[[0,0,0],[0.25,0,0],[0.5,0,0],[0.75,0,0],[1,0,0],[0,1,0],[0.25,1,0],[0.5,1,0],[0.75,1,0],[1,1,0],[0,0.25,0],[0,0.5,0],[0,0.75,0],[1,0.25,0],[1,0.5,0],[1,0.75,0]];outlineConnect=0;fontColor=#232F3E;fillColor=#ED7100;strokeColor=#ffffff;dashed=0;verticalLabelPosition=bottom;verticalAlign=top;align=center;html=1;fontSize=19;fontStyle=0;aspect=fixed;shape=mxgraph.aws4.resourceIcon;resIcon=mxgraph.aws4.lambda;" vertex="1" parent="8OQsEcffn4VBaYcQrzt6-58">
          <mxGeometry x="350" y="290" width="80" height="80" as="geometry" />
        </mxCell>
        <mxCell id="8OQsEcffn4VBaYcQrzt6-71" style="edgeStyle=orthogonalEdgeStyle;rounded=0;orthogonalLoop=1;jettySize=auto;html=1;dashed=1;" edge="1" parent="8OQsEcffn4VBaYcQrzt6-58" source="8OQsEcffn4VBaYcQrzt6-12" target="8OQsEcffn4VBaYcQrzt6-9">
          <mxGeometry relative="1" as="geometry">
            <Array as="points">
              <mxPoint x="770" y="90" />
              <mxPoint x="770" y="526" />
            </Array>
          </mxGeometry>
        </mxCell>
        <mxCell id="8OQsEcffn4VBaYcQrzt6-12" value="Lambda&lt;br&gt;(S3 Upload Listener)" style="sketch=0;points=[[0,0,0],[0.25,0,0],[0.5,0,0],[0.75,0,0],[1,0,0],[0,1,0],[0.25,1,0],[0.5,1,0],[0.75,1,0],[1,1,0],[0,0.25,0],[0,0.5,0],[0,0.75,0],[1,0.25,0],[1,0.5,0],[1,0.75,0]];outlineConnect=0;fontColor=#232F3E;fillColor=#ED7100;strokeColor=#ffffff;dashed=0;verticalLabelPosition=bottom;verticalAlign=top;align=center;html=1;fontSize=19;fontStyle=0;aspect=fixed;shape=mxgraph.aws4.resourceIcon;resIcon=mxgraph.aws4.lambda;" vertex="1" parent="8OQsEcffn4VBaYcQrzt6-58">
          <mxGeometry x="617" y="50" width="80" height="80" as="geometry" />
        </mxCell>
        <mxCell id="8OQsEcffn4VBaYcQrzt6-9" value="CloudWatch" style="sketch=0;points=[[0,0,0],[0.25,0,0],[0.5,0,0],[0.75,0,0],[1,0,0],[0,1,0],[0.25,1,0],[0.5,1,0],[0.75,1,0],[1,1,0],[0,0.25,0],[0,0.5,0],[0,0.75,0],[1,0.25,0],[1,0.5,0],[1,0.75,0]];points=[[0,0,0],[0.25,0,0],[0.5,0,0],[0.75,0,0],[1,0,0],[0,1,0],[0.25,1,0],[0.5,1,0],[0.75,1,0],[1,1,0],[0,0.25,0],[0,0.5,0],[0,0.75,0],[1,0.25,0],[1,0.5,0],[1,0.75,0]];outlineConnect=0;fontColor=#232F3E;fillColor=#E7157B;strokeColor=#ffffff;dashed=0;verticalLabelPosition=bottom;verticalAlign=top;align=center;html=1;fontSize=19;fontStyle=0;aspect=fixed;shape=mxgraph.aws4.resourceIcon;resIcon=mxgraph.aws4.cloudwatch_2;" vertex="1" parent="8OQsEcffn4VBaYcQrzt6-58">
          <mxGeometry x="600" y="487" width="78" height="78" as="geometry" />
        </mxCell>
        <mxCell id="8OQsEcffn4VBaYcQrzt6-2" value="DynamoDB&lt;br&gt;(Movie Store)" style="sketch=0;points=[[0,0,0],[0.25,0,0],[0.5,0,0],[0.75,0,0],[1,0,0],[0,1,0],[0.25,1,0],[0.5,1,0],[0.75,1,0],[1,1,0],[0,0.25,0],[0,0.5,0],[0,0.75,0],[1,0.25,0],[1,0.5,0],[1,0.75,0]];outlineConnect=0;fontColor=#232F3E;fillColor=#C925D1;strokeColor=#ffffff;dashed=0;verticalLabelPosition=bottom;verticalAlign=top;align=center;html=1;fontSize=19;fontStyle=0;aspect=fixed;shape=mxgraph.aws4.resourceIcon;resIcon=mxgraph.aws4.dynamodb;" vertex="1" parent="8OQsEcffn4VBaYcQrzt6-58">
          <mxGeometry x="617" y="290" width="80" height="80" as="geometry" />
        </mxCell>
        <mxCell id="8OQsEcffn4VBaYcQrzt6-64" style="edgeStyle=orthogonalEdgeStyle;rounded=0;orthogonalLoop=1;jettySize=auto;html=1;entryX=0.5;entryY=0;entryDx=0;entryDy=0;entryPerimeter=0;dashed=1;" edge="1" parent="8OQsEcffn4VBaYcQrzt6-58" source="8OQsEcffn4VBaYcQrzt6-4" target="8OQsEcffn4VBaYcQrzt6-7">
          <mxGeometry relative="1" as="geometry" />
        </mxCell>
        <mxCell id="8OQsEcffn4VBaYcQrzt6-67" value="CRUD" style="edgeStyle=orthogonalEdgeStyle;rounded=0;orthogonalLoop=1;jettySize=auto;html=1;entryX=0;entryY=0.5;entryDx=0;entryDy=0;entryPerimeter=0;fontSize=16;dashed=1;" edge="1" parent="8OQsEcffn4VBaYcQrzt6-58" source="8OQsEcffn4VBaYcQrzt6-1" target="8OQsEcffn4VBaYcQrzt6-2">
          <mxGeometry relative="1" as="geometry" />
        </mxCell>
        <mxCell id="8OQsEcffn4VBaYcQrzt6-68" value="Update" style="edgeStyle=orthogonalEdgeStyle;rounded=0;orthogonalLoop=1;jettySize=auto;html=1;entryX=0.5;entryY=0;entryDx=0;entryDy=0;entryPerimeter=0;dashed=1;fontSize=16;" edge="1" parent="8OQsEcffn4VBaYcQrzt6-58" source="8OQsEcffn4VBaYcQrzt6-12" target="8OQsEcffn4VBaYcQrzt6-2">
          <mxGeometry relative="1" as="geometry" />
        </mxCell>
        <mxCell id="8OQsEcffn4VBaYcQrzt6-69" value="Forward Call" style="edgeStyle=orthogonalEdgeStyle;rounded=0;orthogonalLoop=1;jettySize=auto;html=1;entryX=0;entryY=0.5;entryDx=0;entryDy=0;entryPerimeter=0;fontSize=16;" edge="1" parent="8OQsEcffn4VBaYcQrzt6-58" source="8OQsEcffn4VBaYcQrzt6-4" target="8OQsEcffn4VBaYcQrzt6-1">
          <mxGeometry relative="1" as="geometry" />
        </mxCell>
        <mxCell id="8OQsEcffn4VBaYcQrzt6-70" style="edgeStyle=orthogonalEdgeStyle;rounded=0;orthogonalLoop=1;jettySize=auto;html=1;entryX=0;entryY=0.5;entryDx=0;entryDy=0;entryPerimeter=0;dashed=1;" edge="1" parent="8OQsEcffn4VBaYcQrzt6-58" source="8OQsEcffn4VBaYcQrzt6-1" target="8OQsEcffn4VBaYcQrzt6-9">
          <mxGeometry relative="1" as="geometry">
            <Array as="points">
              <mxPoint x="390" y="526" />
            </Array>
          </mxGeometry>
        </mxCell>
        <mxCell id="8OQsEcffn4VBaYcQrzt6-59" value="&lt;font style=&quot;font-size: 16px;&quot;&gt;Authenticate&lt;/font&gt;" style="edgeStyle=orthogonalEdgeStyle;rounded=0;orthogonalLoop=1;jettySize=auto;html=1;entryX=0;entryY=0.5;entryDx=0;entryDy=0;entryPerimeter=0;" edge="1" parent="1" source="8OQsEcffn4VBaYcQrzt6-10" target="8OQsEcffn4VBaYcQrzt6-5">
          <mxGeometry relative="1" as="geometry">
            <Array as="points">
              <mxPoint x="250" y="280" />
            </Array>
          </mxGeometry>
        </mxCell>
        <mxCell id="8OQsEcffn4VBaYcQrzt6-60" value="&lt;font style=&quot;font-size: 16px;&quot;&gt;Call APIs&lt;/font&gt;" style="edgeStyle=orthogonalEdgeStyle;rounded=0;orthogonalLoop=1;jettySize=auto;html=1;entryX=0;entryY=0.5;entryDx=0;entryDy=0;entryPerimeter=0;" edge="1" parent="1" source="8OQsEcffn4VBaYcQrzt6-10" target="8OQsEcffn4VBaYcQrzt6-4">
          <mxGeometry relative="1" as="geometry">
            <Array as="points">
              <mxPoint x="157" y="320" />
              <mxPoint x="157" y="430" />
            </Array>
          </mxGeometry>
        </mxCell>
        <mxCell id="8OQsEcffn4VBaYcQrzt6-61" value="Upload/Download Files" style="edgeStyle=orthogonalEdgeStyle;rounded=0;orthogonalLoop=1;jettySize=auto;html=1;entryX=0;entryY=0.5;entryDx=0;entryDy=0;entryPerimeter=0;fontSize=16;" edge="1" parent="1" source="8OQsEcffn4VBaYcQrzt6-10" target="8OQsEcffn4VBaYcQrzt6-3">
          <mxGeometry x="-0.0544" relative="1" as="geometry">
            <Array as="points">
              <mxPoint x="70" y="140" />
              <mxPoint x="322" y="140" />
              <mxPoint x="322" y="150" />
            </Array>
            <mxPoint as="offset" />
          </mxGeometry>
        </mxCell>
      </root>
    </mxGraphModel>
  </diagram>
</mxfile>
